<?xml version="1.0" encoding="UTF-8"?>
<!-- Generated by Pixelmator Pro 3.8 -->
<svg width="300" height="300" viewBox="0 0 300 300" xmlns="http://www.w3.org/2000/svg">
    <path id="Path" fill="none" stroke="#000000" stroke-width="4" stroke-linecap="square" d="M 38 0 L 0 37"/>
    <path id="path1" fill="none" stroke="#000000" stroke-width="4" stroke-linecap="square" d="M 75 0 L 0 75"/>
    <path id="path2" fill="none" stroke="#000000" stroke-width="4" stroke-linecap="square" d="M 113 0 L 0 112"/>
    <path id="path3" fill="none" stroke="#000000" stroke-width="4" stroke-linecap="square" d="M 150 0 L 0 150"/>
    <path id="path4" fill="none" stroke="#000000" stroke-width="4" stroke-linecap="square" d="M 188 0 L 0 187"/>
    <path id="path5" fill="none" stroke="#000000" stroke-width="4" stroke-linecap="square" d="M 225 0 L 0 225"/>
    <path id="path6" fill="none" stroke="#000000" stroke-width="4" stroke-linecap="square" d="M 263 0 L 0 262"/>
    <path id="path7" fill="none" stroke="#000000" stroke-width="4" stroke-linecap="square" d="M 300 0 L 0 300"/>
    <path id="path8" fill="none" stroke="#000000" stroke-width="4" stroke-linecap="square" d="M 300 37 L 38 300"/>
    <path id="path9" fill="none" stroke="#000000" stroke-width="4" stroke-linecap="square" d="M 300 75 L 75 300"/>
    <path id="path10" fill="none" stroke="#000000" stroke-width="4" stroke-linecap="square" d="M 300 112 L 113 300"/>
    <path id="path11" fill="none" stroke="#000000" stroke-width="4" stroke-linecap="square" d="M 300 150 L 150 300"/>
    <path id="path12" fill="none" stroke="#000000" stroke-width="4" stroke-linecap="square" d="M 300 187 L 188 300"/>
    <path id="path13" fill="none" stroke="#000000" stroke-width="4" stroke-linecap="square" d="M 300 225 L 225 300"/>
    <path id="path14" fill="none" stroke="#000000" stroke-width="4" stroke-linecap="square" d="M 300 262 L 263 300"/>
</svg>
